<mxfile host="Electron" modified="2024-04-10T15:28:51.039Z" agent="Mozilla/5.0 (Windows NT 10.0; Win64; x64) AppleWebKit/537.36 (KHTML, like Gecko) draw.io/24.0.4 Chrome/120.0.6099.109 Electron/28.1.0 Safari/537.36" etag="-w5xsejEn-DbofveU4kr" version="24.0.4" type="device">
  <diagram id="23iRSUPoRavnBvh4doch" name="Page-1">
    <mxGraphModel dx="2261" dy="836" grid="1" gridSize="10" guides="1" tooltips="1" connect="1" arrows="1" fold="1" page="1" pageScale="1" pageWidth="827" pageHeight="1169" math="0" shadow="0">
      <root>
        <mxCell id="0" />
        <mxCell id="1" parent="0" />
        <mxCell id="jl3M8Nz27-tc7JQozG0L-1" value="Київ" style="ellipse;whiteSpace=wrap;html=1;" parent="1" vertex="1">
          <mxGeometry x="340" y="120" width="60" height="30" as="geometry" />
        </mxCell>
        <mxCell id="jl3M8Nz27-tc7JQozG0L-2" value="Житомир" style="ellipse;whiteSpace=wrap;html=1;" parent="1" vertex="1">
          <mxGeometry x="210" y="180" width="70" height="30" as="geometry" />
        </mxCell>
        <mxCell id="jl3M8Nz27-tc7JQozG0L-3" value="Р&lt;span style=&quot;background-color: initial;&quot;&gt;івне&lt;/span&gt;" style="ellipse;whiteSpace=wrap;html=1;" parent="1" vertex="1">
          <mxGeometry x="10" y="180" width="60" height="30" as="geometry" />
        </mxCell>
        <mxCell id="jl3M8Nz27-tc7JQozG0L-4" value="Луцьк" style="ellipse;whiteSpace=wrap;html=1;" parent="1" vertex="1">
          <mxGeometry x="-170" y="188" width="60" height="30" as="geometry" />
        </mxCell>
        <mxCell id="jl3M8Nz27-tc7JQozG0L-5" value="Львів" style="ellipse;whiteSpace=wrap;html=1;" parent="1" vertex="1">
          <mxGeometry x="-280" y="300" width="60" height="30" as="geometry" />
        </mxCell>
        <mxCell id="jl3M8Nz27-tc7JQozG0L-6" value="Тернопіль" style="ellipse;whiteSpace=wrap;html=1;" parent="1" vertex="1">
          <mxGeometry x="-130" y="360" width="70" height="30" as="geometry" />
        </mxCell>
        <mxCell id="jl3M8Nz27-tc7JQozG0L-7" value="Хмельницький" style="ellipse;whiteSpace=wrap;html=1;" parent="1" vertex="1">
          <mxGeometry x="10" y="400" width="100" height="30" as="geometry" />
        </mxCell>
        <mxCell id="jl3M8Nz27-tc7JQozG0L-8" value="Вінниця" style="ellipse;whiteSpace=wrap;html=1;" parent="1" vertex="1">
          <mxGeometry x="210" y="390" width="60" height="30" as="geometry" />
        </mxCell>
        <mxCell id="jl3M8Nz27-tc7JQozG0L-9" value="Умань" style="ellipse;whiteSpace=wrap;html=1;" parent="1" vertex="1">
          <mxGeometry x="360" y="390" width="60" height="30" as="geometry" />
        </mxCell>
        <mxCell id="jl3M8Nz27-tc7JQozG0L-10" value="Кропівницький" style="ellipse;whiteSpace=wrap;html=1;" parent="1" vertex="1">
          <mxGeometry x="540" y="410" width="100" height="30" as="geometry" />
        </mxCell>
        <mxCell id="jl3M8Nz27-tc7JQozG0L-11" value="Дніпро" style="ellipse;whiteSpace=wrap;html=1;" parent="1" vertex="1">
          <mxGeometry x="827" y="410" width="60" height="30" as="geometry" />
        </mxCell>
        <mxCell id="jl3M8Nz27-tc7JQozG0L-12" value="Кременчук" style="ellipse;whiteSpace=wrap;html=1;" parent="1" vertex="1">
          <mxGeometry x="680" y="300" width="100" height="30" as="geometry" />
        </mxCell>
        <mxCell id="jl3M8Nz27-tc7JQozG0L-13" value="Черкаси" style="ellipse;whiteSpace=wrap;html=1;" parent="1" vertex="1">
          <mxGeometry x="500" y="240" width="100" height="30" as="geometry" />
        </mxCell>
        <mxCell id="jl3M8Nz27-tc7JQozG0L-14" value="Полтава" style="ellipse;whiteSpace=wrap;html=1;" parent="1" vertex="1">
          <mxGeometry x="800" y="220" width="100" height="30" as="geometry" />
        </mxCell>
        <mxCell id="jl3M8Nz27-tc7JQozG0L-15" value="Кривий Ріг" style="ellipse;whiteSpace=wrap;html=1;" parent="1" vertex="1">
          <mxGeometry x="630" y="540" width="100" height="30" as="geometry" />
        </mxCell>
        <mxCell id="jl3M8Nz27-tc7JQozG0L-16" value="Миколаїв" style="ellipse;whiteSpace=wrap;html=1;" parent="1" vertex="1">
          <mxGeometry x="480" y="620" width="100" height="30" as="geometry" />
        </mxCell>
        <mxCell id="jl3M8Nz27-tc7JQozG0L-17" value="Одеса" style="ellipse;whiteSpace=wrap;html=1;" parent="1" vertex="1">
          <mxGeometry x="294" y="700" width="100" height="30" as="geometry" />
        </mxCell>
        <mxCell id="jl3M8Nz27-tc7JQozG0L-19" value="Харків" style="ellipse;whiteSpace=wrap;html=1;" parent="1" vertex="1">
          <mxGeometry x="960" y="150" width="100" height="30" as="geometry" />
        </mxCell>
        <mxCell id="jl3M8Nz27-tc7JQozG0L-20" value="Суми" style="ellipse;whiteSpace=wrap;html=1;" parent="1" vertex="1">
          <mxGeometry x="700" y="90" width="100" height="30" as="geometry" />
        </mxCell>
        <mxCell id="jl3M8Nz27-tc7JQozG0L-21" value="Чернігів" style="ellipse;whiteSpace=wrap;html=1;" parent="1" vertex="1">
          <mxGeometry x="454" y="40" width="100" height="30" as="geometry" />
        </mxCell>
        <mxCell id="jl3M8Nz27-tc7JQozG0L-22" value="Запоріжжя" style="ellipse;whiteSpace=wrap;html=1;" parent="1" vertex="1">
          <mxGeometry x="840" y="540" width="100" height="30" as="geometry" />
        </mxCell>
        <mxCell id="jl3M8Nz27-tc7JQozG0L-23" value="Херсон" style="ellipse;whiteSpace=wrap;html=1;" parent="1" vertex="1">
          <mxGeometry x="600" y="710" width="100" height="30" as="geometry" />
        </mxCell>
        <mxCell id="jl3M8Nz27-tc7JQozG0L-24" value="" style="endArrow=none;html=1;rounded=0;exitX=0;exitY=1;exitDx=0;exitDy=0;entryX=1;entryY=0;entryDx=0;entryDy=0;" parent="1" source="jl3M8Nz27-tc7JQozG0L-1" target="jl3M8Nz27-tc7JQozG0L-2" edge="1">
          <mxGeometry width="50" height="50" relative="1" as="geometry">
            <mxPoint x="530" y="490" as="sourcePoint" />
            <mxPoint x="580" y="440" as="targetPoint" />
          </mxGeometry>
        </mxCell>
        <mxCell id="jl3M8Nz27-tc7JQozG0L-25" value="140" style="text;html=1;align=center;verticalAlign=middle;resizable=0;points=[];autosize=1;strokeColor=none;fillColor=none;" parent="1" vertex="1">
          <mxGeometry x="280" y="138" width="40" height="30" as="geometry" />
        </mxCell>
        <mxCell id="jl3M8Nz27-tc7JQozG0L-26" value="" style="endArrow=none;html=1;rounded=0;entryX=1;entryY=0;entryDx=0;entryDy=0;exitX=0;exitY=0.5;exitDx=0;exitDy=0;" parent="1" source="jl3M8Nz27-tc7JQozG0L-21" target="jl3M8Nz27-tc7JQozG0L-1" edge="1">
          <mxGeometry width="50" height="50" relative="1" as="geometry">
            <mxPoint x="390" y="320" as="sourcePoint" />
            <mxPoint x="440" y="270" as="targetPoint" />
          </mxGeometry>
        </mxCell>
        <mxCell id="jl3M8Nz27-tc7JQozG0L-27" value="157" style="text;html=1;align=center;verticalAlign=middle;resizable=0;points=[];autosize=1;strokeColor=none;fillColor=none;" parent="1" vertex="1">
          <mxGeometry x="394" y="60" width="40" height="30" as="geometry" />
        </mxCell>
        <mxCell id="jl3M8Nz27-tc7JQozG0L-28" value="" style="endArrow=none;html=1;rounded=0;exitX=1;exitY=1;exitDx=0;exitDy=0;entryX=0;entryY=0;entryDx=0;entryDy=0;" parent="1" source="jl3M8Nz27-tc7JQozG0L-1" target="jl3M8Nz27-tc7JQozG0L-13" edge="1">
          <mxGeometry width="50" height="50" relative="1" as="geometry">
            <mxPoint x="390" y="320" as="sourcePoint" />
            <mxPoint x="440" y="270" as="targetPoint" />
          </mxGeometry>
        </mxCell>
        <mxCell id="jl3M8Nz27-tc7JQozG0L-29" value="193" style="text;html=1;align=center;verticalAlign=middle;resizable=0;points=[];autosize=1;strokeColor=none;fillColor=none;" parent="1" vertex="1">
          <mxGeometry x="440" y="168" width="40" height="30" as="geometry" />
        </mxCell>
        <mxCell id="jl3M8Nz27-tc7JQozG0L-30" value="" style="endArrow=none;html=1;rounded=0;entryX=0.5;entryY=1;entryDx=0;entryDy=0;exitX=0.5;exitY=0;exitDx=0;exitDy=0;" parent="1" source="jl3M8Nz27-tc7JQozG0L-9" target="jl3M8Nz27-tc7JQozG0L-1" edge="1">
          <mxGeometry width="50" height="50" relative="1" as="geometry">
            <mxPoint x="320" y="340" as="sourcePoint" />
            <mxPoint x="370" y="290" as="targetPoint" />
          </mxGeometry>
        </mxCell>
        <mxCell id="jl3M8Nz27-tc7JQozG0L-31" value="212" style="text;html=1;align=center;verticalAlign=middle;resizable=0;points=[];autosize=1;strokeColor=none;fillColor=none;" parent="1" vertex="1">
          <mxGeometry x="340" y="278" width="40" height="30" as="geometry" />
        </mxCell>
        <mxCell id="jl3M8Nz27-tc7JQozG0L-32" value="" style="endArrow=none;html=1;rounded=0;exitX=0.269;exitY=0.981;exitDx=0;exitDy=0;exitPerimeter=0;entryX=1;entryY=0;entryDx=0;entryDy=0;" parent="1" source="jl3M8Nz27-tc7JQozG0L-1" target="jl3M8Nz27-tc7JQozG0L-8" edge="1">
          <mxGeometry width="50" height="50" relative="1" as="geometry">
            <mxPoint x="320" y="340" as="sourcePoint" />
            <mxPoint x="370" y="290" as="targetPoint" />
          </mxGeometry>
        </mxCell>
        <mxCell id="jl3M8Nz27-tc7JQozG0L-33" value="272" style="text;html=1;align=center;verticalAlign=middle;resizable=0;points=[];autosize=1;strokeColor=none;fillColor=none;" parent="1" vertex="1">
          <mxGeometry x="280" y="238" width="40" height="30" as="geometry" />
        </mxCell>
        <mxCell id="jl3M8Nz27-tc7JQozG0L-34" value="" style="endArrow=none;html=1;rounded=0;exitX=0.721;exitY=0.933;exitDx=0;exitDy=0;exitPerimeter=0;entryX=0;entryY=0;entryDx=0;entryDy=0;" parent="1" source="jl3M8Nz27-tc7JQozG0L-1" target="jl3M8Nz27-tc7JQozG0L-10" edge="1">
          <mxGeometry width="50" height="50" relative="1" as="geometry">
            <mxPoint x="440" y="330" as="sourcePoint" />
            <mxPoint x="490" y="280" as="targetPoint" />
          </mxGeometry>
        </mxCell>
        <mxCell id="jl3M8Nz27-tc7JQozG0L-35" value="303" style="text;html=1;align=center;verticalAlign=middle;resizable=0;points=[];autosize=1;strokeColor=none;fillColor=none;" parent="1" vertex="1">
          <mxGeometry x="440" y="278" width="40" height="30" as="geometry" />
        </mxCell>
        <mxCell id="jl3M8Nz27-tc7JQozG0L-36" value="" style="endArrow=none;html=1;rounded=0;exitX=0.944;exitY=0.706;exitDx=0;exitDy=0;exitPerimeter=0;" parent="1" source="jl3M8Nz27-tc7JQozG0L-1" target="jl3M8Nz27-tc7JQozG0L-14" edge="1">
          <mxGeometry width="50" height="50" relative="1" as="geometry">
            <mxPoint x="440" y="330" as="sourcePoint" />
            <mxPoint x="490" y="280" as="targetPoint" />
          </mxGeometry>
        </mxCell>
        <mxCell id="jl3M8Nz27-tc7JQozG0L-37" value="352" style="text;html=1;align=center;verticalAlign=middle;resizable=0;points=[];autosize=1;strokeColor=none;fillColor=none;" parent="1" vertex="1">
          <mxGeometry x="590" y="158" width="40" height="30" as="geometry" />
        </mxCell>
        <mxCell id="jl3M8Nz27-tc7JQozG0L-38" value="" style="endArrow=none;html=1;rounded=0;exitX=0.971;exitY=0.314;exitDx=0;exitDy=0;exitPerimeter=0;entryX=0;entryY=0.5;entryDx=0;entryDy=0;" parent="1" source="jl3M8Nz27-tc7JQozG0L-1" target="jl3M8Nz27-tc7JQozG0L-20" edge="1">
          <mxGeometry width="50" height="50" relative="1" as="geometry">
            <mxPoint x="440" y="330" as="sourcePoint" />
            <mxPoint x="490" y="280" as="targetPoint" />
          </mxGeometry>
        </mxCell>
        <mxCell id="jl3M8Nz27-tc7JQozG0L-39" value="334" style="text;html=1;align=center;verticalAlign=middle;resizable=0;points=[];autosize=1;strokeColor=none;fillColor=none;" parent="1" vertex="1">
          <mxGeometry x="540" y="88" width="40" height="30" as="geometry" />
        </mxCell>
        <mxCell id="jl3M8Nz27-tc7JQozG0L-40" value="" style="endArrow=none;html=1;rounded=0;entryX=1;entryY=0.5;entryDx=0;entryDy=0;" parent="1" source="jl3M8Nz27-tc7JQozG0L-20" target="jl3M8Nz27-tc7JQozG0L-21" edge="1">
          <mxGeometry width="50" height="50" relative="1" as="geometry">
            <mxPoint x="420" y="250" as="sourcePoint" />
            <mxPoint x="470" y="200" as="targetPoint" />
          </mxGeometry>
        </mxCell>
        <mxCell id="jl3M8Nz27-tc7JQozG0L-42" value="340" style="text;html=1;align=center;verticalAlign=middle;resizable=0;points=[];autosize=1;strokeColor=none;fillColor=none;" parent="1" vertex="1">
          <mxGeometry x="610" y="48" width="40" height="30" as="geometry" />
        </mxCell>
        <mxCell id="jl3M8Nz27-tc7JQozG0L-43" value="" style="endArrow=none;html=1;rounded=0;exitX=0;exitY=0.5;exitDx=0;exitDy=0;entryX=1;entryY=0.5;entryDx=0;entryDy=0;" parent="1" source="jl3M8Nz27-tc7JQozG0L-2" target="jl3M8Nz27-tc7JQozG0L-3" edge="1">
          <mxGeometry width="50" height="50" relative="1" as="geometry">
            <mxPoint x="160" y="300" as="sourcePoint" />
            <mxPoint x="210" y="250" as="targetPoint" />
          </mxGeometry>
        </mxCell>
        <mxCell id="jl3M8Nz27-tc7JQozG0L-44" value="190" style="text;html=1;align=center;verticalAlign=middle;resizable=0;points=[];autosize=1;strokeColor=none;fillColor=none;" parent="1" vertex="1">
          <mxGeometry x="110" y="168" width="40" height="30" as="geometry" />
        </mxCell>
        <mxCell id="jl3M8Nz27-tc7JQozG0L-46" value="" style="endArrow=none;html=1;rounded=0;exitX=1;exitY=0.5;exitDx=0;exitDy=0;entryX=0;entryY=0.5;entryDx=0;entryDy=0;" parent="1" source="jl3M8Nz27-tc7JQozG0L-1" target="jl3M8Nz27-tc7JQozG0L-19" edge="1">
          <mxGeometry width="50" height="50" relative="1" as="geometry">
            <mxPoint x="470" y="130" as="sourcePoint" />
            <mxPoint x="700" y="240" as="targetPoint" />
          </mxGeometry>
        </mxCell>
        <mxCell id="jl3M8Nz27-tc7JQozG0L-47" value="489" style="text;html=1;align=center;verticalAlign=middle;resizable=0;points=[];autosize=1;strokeColor=none;fillColor=none;" parent="1" vertex="1">
          <mxGeometry x="770" y="128" width="40" height="30" as="geometry" />
        </mxCell>
        <mxCell id="jl3M8Nz27-tc7JQozG0L-48" value="" style="endArrow=none;html=1;rounded=0;exitX=0.5;exitY=1;exitDx=0;exitDy=0;entryX=0.5;entryY=0;entryDx=0;entryDy=0;" parent="1" source="jl3M8Nz27-tc7JQozG0L-2" target="jl3M8Nz27-tc7JQozG0L-8" edge="1">
          <mxGeometry width="50" height="50" relative="1" as="geometry">
            <mxPoint x="250" y="320" as="sourcePoint" />
            <mxPoint x="300" y="270" as="targetPoint" />
          </mxGeometry>
        </mxCell>
        <mxCell id="jl3M8Nz27-tc7JQozG0L-49" value="" style="endArrow=none;html=1;rounded=0;entryX=0;entryY=1;entryDx=0;entryDy=0;exitX=1;exitY=0;exitDx=0;exitDy=0;" parent="1" source="jl3M8Nz27-tc7JQozG0L-7" target="jl3M8Nz27-tc7JQozG0L-2" edge="1">
          <mxGeometry width="50" height="50" relative="1" as="geometry">
            <mxPoint x="90" y="320" as="sourcePoint" />
            <mxPoint x="140" y="270" as="targetPoint" />
          </mxGeometry>
        </mxCell>
        <mxCell id="jl3M8Nz27-tc7JQozG0L-50" value="" style="endArrow=none;html=1;rounded=0;exitX=0;exitY=0.5;exitDx=0;exitDy=0;entryX=1;entryY=0.5;entryDx=0;entryDy=0;" parent="1" source="jl3M8Nz27-tc7JQozG0L-3" target="jl3M8Nz27-tc7JQozG0L-4" edge="1">
          <mxGeometry width="50" height="50" relative="1" as="geometry">
            <mxPoint x="20" y="280" as="sourcePoint" />
            <mxPoint x="70" y="230" as="targetPoint" />
          </mxGeometry>
        </mxCell>
        <mxCell id="jl3M8Nz27-tc7JQozG0L-51" value="73" style="text;html=1;align=center;verticalAlign=middle;resizable=0;points=[];autosize=1;strokeColor=none;fillColor=none;" parent="1" vertex="1">
          <mxGeometry x="-80" y="168" width="40" height="30" as="geometry" />
        </mxCell>
        <mxCell id="jl3M8Nz27-tc7JQozG0L-52" value="" style="endArrow=none;html=1;rounded=0;exitX=0.5;exitY=1;exitDx=0;exitDy=0;" parent="1" source="jl3M8Nz27-tc7JQozG0L-3" target="jl3M8Nz27-tc7JQozG0L-7" edge="1">
          <mxGeometry width="50" height="50" relative="1" as="geometry">
            <mxPoint x="70" y="300" as="sourcePoint" />
            <mxPoint x="120" y="250" as="targetPoint" />
          </mxGeometry>
        </mxCell>
        <mxCell id="jl3M8Nz27-tc7JQozG0L-53" value="195" style="text;html=1;align=center;verticalAlign=middle;resizable=0;points=[];autosize=1;strokeColor=none;fillColor=none;" parent="1" vertex="1">
          <mxGeometry x="10" y="298" width="40" height="30" as="geometry" />
        </mxCell>
        <mxCell id="jl3M8Nz27-tc7JQozG0L-54" value="" style="endArrow=none;html=1;rounded=0;entryX=0;entryY=1;entryDx=0;entryDy=0;exitX=1;exitY=0;exitDx=0;exitDy=0;" parent="1" source="jl3M8Nz27-tc7JQozG0L-6" target="jl3M8Nz27-tc7JQozG0L-3" edge="1">
          <mxGeometry width="50" height="50" relative="1" as="geometry">
            <mxPoint x="70" y="300" as="sourcePoint" />
            <mxPoint x="120" y="250" as="targetPoint" />
          </mxGeometry>
        </mxCell>
        <mxCell id="jl3M8Nz27-tc7JQozG0L-55" value="160" style="text;html=1;align=center;verticalAlign=middle;resizable=0;points=[];autosize=1;strokeColor=none;fillColor=none;" parent="1" vertex="1">
          <mxGeometry x="-60" y="258" width="40" height="30" as="geometry" />
        </mxCell>
        <mxCell id="jl3M8Nz27-tc7JQozG0L-56" value="" style="endArrow=none;html=1;rounded=0;exitX=0;exitY=1;exitDx=0;exitDy=0;entryX=1;entryY=0;entryDx=0;entryDy=0;" parent="1" source="jl3M8Nz27-tc7JQozG0L-4" target="jl3M8Nz27-tc7JQozG0L-5" edge="1">
          <mxGeometry width="50" height="50" relative="1" as="geometry">
            <mxPoint x="-70" y="300" as="sourcePoint" />
            <mxPoint x="-20" y="250" as="targetPoint" />
          </mxGeometry>
        </mxCell>
        <mxCell id="jl3M8Nz27-tc7JQozG0L-57" value="152" style="text;html=1;align=center;verticalAlign=middle;resizable=0;points=[];autosize=1;strokeColor=none;fillColor=none;" parent="1" vertex="1">
          <mxGeometry x="-240" y="238" width="40" height="30" as="geometry" />
        </mxCell>
        <mxCell id="jl3M8Nz27-tc7JQozG0L-59" value="" style="endArrow=none;html=1;rounded=0;exitX=1;exitY=1;exitDx=0;exitDy=0;entryX=0.5;entryY=0;entryDx=0;entryDy=0;" parent="1" source="jl3M8Nz27-tc7JQozG0L-4" target="jl3M8Nz27-tc7JQozG0L-6" edge="1">
          <mxGeometry width="50" height="50" relative="1" as="geometry">
            <mxPoint x="-70" y="300" as="sourcePoint" />
            <mxPoint x="-20" y="250" as="targetPoint" />
          </mxGeometry>
        </mxCell>
        <mxCell id="jl3M8Nz27-tc7JQozG0L-60" value="169" style="text;html=1;align=center;verticalAlign=middle;resizable=0;points=[];autosize=1;strokeColor=none;fillColor=none;" parent="1" vertex="1">
          <mxGeometry x="-140" y="278" width="40" height="30" as="geometry" />
        </mxCell>
        <mxCell id="jl3M8Nz27-tc7JQozG0L-61" value="" style="endArrow=none;html=1;rounded=0;exitX=1;exitY=1;exitDx=0;exitDy=0;entryX=0;entryY=0.5;entryDx=0;entryDy=0;" parent="1" source="jl3M8Nz27-tc7JQozG0L-5" target="jl3M8Nz27-tc7JQozG0L-6" edge="1">
          <mxGeometry width="50" height="50" relative="1" as="geometry">
            <mxPoint x="-70" y="300" as="sourcePoint" />
            <mxPoint x="-20" y="250" as="targetPoint" />
          </mxGeometry>
        </mxCell>
        <mxCell id="jl3M8Nz27-tc7JQozG0L-62" value="192" style="text;html=1;align=center;verticalAlign=middle;resizable=0;points=[];autosize=1;strokeColor=none;fillColor=none;" parent="1" vertex="1">
          <mxGeometry x="120" y="278" width="40" height="30" as="geometry" />
        </mxCell>
        <mxCell id="jl3M8Nz27-tc7JQozG0L-63" value="132" style="text;html=1;align=center;verticalAlign=middle;resizable=0;points=[];autosize=1;strokeColor=none;fillColor=none;" parent="1" vertex="1">
          <mxGeometry x="210" y="288" width="40" height="30" as="geometry" />
        </mxCell>
        <mxCell id="jl3M8Nz27-tc7JQozG0L-64" value="128" style="text;html=1;align=center;verticalAlign=middle;resizable=0;points=[];autosize=1;strokeColor=none;fillColor=none;" parent="1" vertex="1">
          <mxGeometry x="-190" y="328" width="40" height="30" as="geometry" />
        </mxCell>
        <mxCell id="jl3M8Nz27-tc7JQozG0L-65" value="" style="endArrow=none;html=1;rounded=0;exitX=1;exitY=1;exitDx=0;exitDy=0;entryX=0;entryY=0.5;entryDx=0;entryDy=0;" parent="1" source="jl3M8Nz27-tc7JQozG0L-6" target="jl3M8Nz27-tc7JQozG0L-7" edge="1">
          <mxGeometry width="50" height="50" relative="1" as="geometry">
            <mxPoint x="150" y="390" as="sourcePoint" />
            <mxPoint x="200" y="340" as="targetPoint" />
          </mxGeometry>
        </mxCell>
        <mxCell id="jl3M8Nz27-tc7JQozG0L-66" value="112" style="text;html=1;align=center;verticalAlign=middle;resizable=0;points=[];autosize=1;strokeColor=none;fillColor=none;" parent="1" vertex="1">
          <mxGeometry x="-40" y="368" width="40" height="30" as="geometry" />
        </mxCell>
        <mxCell id="jl3M8Nz27-tc7JQozG0L-67" value="" style="endArrow=none;html=1;rounded=0;exitX=1;exitY=0.5;exitDx=0;exitDy=0;entryX=0;entryY=0.5;entryDx=0;entryDy=0;" parent="1" source="jl3M8Nz27-tc7JQozG0L-7" target="jl3M8Nz27-tc7JQozG0L-8" edge="1">
          <mxGeometry width="50" height="50" relative="1" as="geometry">
            <mxPoint x="230" y="380" as="sourcePoint" />
            <mxPoint x="280" y="330" as="targetPoint" />
          </mxGeometry>
        </mxCell>
        <mxCell id="jl3M8Nz27-tc7JQozG0L-68" value="121" style="text;html=1;align=center;verticalAlign=middle;resizable=0;points=[];autosize=1;strokeColor=none;fillColor=none;" parent="1" vertex="1">
          <mxGeometry x="140" y="380" width="40" height="30" as="geometry" />
        </mxCell>
        <mxCell id="jl3M8Nz27-tc7JQozG0L-69" value="" style="endArrow=none;html=1;rounded=0;entryX=0.5;entryY=1;entryDx=0;entryDy=0;" parent="1" source="jl3M8Nz27-tc7JQozG0L-17" target="jl3M8Nz27-tc7JQozG0L-9" edge="1">
          <mxGeometry width="50" height="50" relative="1" as="geometry">
            <mxPoint x="230" y="470" as="sourcePoint" />
            <mxPoint x="280" y="420" as="targetPoint" />
          </mxGeometry>
        </mxCell>
        <mxCell id="jl3M8Nz27-tc7JQozG0L-70" value="" style="endArrow=none;html=1;rounded=0;exitX=1;exitY=0.5;exitDx=0;exitDy=0;entryX=0;entryY=0.5;entryDx=0;entryDy=0;" parent="1" source="jl3M8Nz27-tc7JQozG0L-8" target="jl3M8Nz27-tc7JQozG0L-9" edge="1">
          <mxGeometry width="50" height="50" relative="1" as="geometry">
            <mxPoint x="290" y="450" as="sourcePoint" />
            <mxPoint x="340" y="400" as="targetPoint" />
          </mxGeometry>
        </mxCell>
        <mxCell id="jl3M8Nz27-tc7JQozG0L-71" value="162" style="text;html=1;align=center;verticalAlign=middle;resizable=0;points=[];autosize=1;strokeColor=none;fillColor=none;" parent="1" vertex="1">
          <mxGeometry x="300" y="380" width="40" height="30" as="geometry" />
        </mxCell>
        <mxCell id="jl3M8Nz27-tc7JQozG0L-72" value="" style="endArrow=none;html=1;rounded=0;entryX=0;entryY=0.5;entryDx=0;entryDy=0;exitX=1;exitY=0.5;exitDx=0;exitDy=0;" parent="1" source="jl3M8Nz27-tc7JQozG0L-9" target="jl3M8Nz27-tc7JQozG0L-10" edge="1">
          <mxGeometry width="50" height="50" relative="1" as="geometry">
            <mxPoint x="360" y="430" as="sourcePoint" />
            <mxPoint x="410" y="380" as="targetPoint" />
          </mxGeometry>
        </mxCell>
        <mxCell id="jl3M8Nz27-tc7JQozG0L-73" value="166" style="text;html=1;align=center;verticalAlign=middle;resizable=0;points=[];autosize=1;strokeColor=none;fillColor=none;" parent="1" vertex="1">
          <mxGeometry x="454" y="390" width="40" height="30" as="geometry" />
        </mxCell>
        <mxCell id="jl3M8Nz27-tc7JQozG0L-74" value="271" style="text;html=1;align=center;verticalAlign=middle;resizable=0;points=[];autosize=1;strokeColor=none;fillColor=none;" parent="1" vertex="1">
          <mxGeometry x="330" y="550" width="40" height="30" as="geometry" />
        </mxCell>
        <mxCell id="jl3M8Nz27-tc7JQozG0L-75" value="" style="endArrow=none;html=1;rounded=0;exitX=0.5;exitY=0;exitDx=0;exitDy=0;entryX=0.5;entryY=1;entryDx=0;entryDy=0;" parent="1" source="jl3M8Nz27-tc7JQozG0L-10" target="jl3M8Nz27-tc7JQozG0L-13" edge="1">
          <mxGeometry width="50" height="50" relative="1" as="geometry">
            <mxPoint x="470" y="310" as="sourcePoint" />
            <mxPoint x="520" y="260" as="targetPoint" />
          </mxGeometry>
        </mxCell>
        <mxCell id="jl3M8Nz27-tc7JQozG0L-76" value="129" style="text;html=1;align=center;verticalAlign=middle;resizable=0;points=[];autosize=1;strokeColor=none;fillColor=none;" parent="1" vertex="1">
          <mxGeometry x="560" y="308" width="40" height="30" as="geometry" />
        </mxCell>
        <mxCell id="jl3M8Nz27-tc7JQozG0L-77" value="" style="endArrow=none;html=1;rounded=0;entryX=1;entryY=0;entryDx=0;entryDy=0;exitX=0.243;exitY=0.897;exitDx=0;exitDy=0;exitPerimeter=0;" parent="1" source="jl3M8Nz27-tc7JQozG0L-12" target="jl3M8Nz27-tc7JQozG0L-10" edge="1">
          <mxGeometry width="50" height="50" relative="1" as="geometry">
            <mxPoint x="460" y="420" as="sourcePoint" />
            <mxPoint x="510" y="370" as="targetPoint" />
          </mxGeometry>
        </mxCell>
        <mxCell id="jl3M8Nz27-tc7JQozG0L-78" value="136" style="text;html=1;align=center;verticalAlign=middle;resizable=0;points=[];autosize=1;strokeColor=none;fillColor=none;" parent="1" vertex="1">
          <mxGeometry x="620" y="350" width="40" height="30" as="geometry" />
        </mxCell>
        <mxCell id="jl3M8Nz27-tc7JQozG0L-79" value="" style="endArrow=none;html=1;rounded=0;exitX=0;exitY=0.5;exitDx=0;exitDy=0;entryX=1;entryY=0.5;entryDx=0;entryDy=0;" parent="1" source="jl3M8Nz27-tc7JQozG0L-11" target="jl3M8Nz27-tc7JQozG0L-10" edge="1">
          <mxGeometry width="50" height="50" relative="1" as="geometry">
            <mxPoint x="460" y="420" as="sourcePoint" />
            <mxPoint x="510" y="370" as="targetPoint" />
          </mxGeometry>
        </mxCell>
        <mxCell id="jl3M8Nz27-tc7JQozG0L-80" value="246" style="text;html=1;align=center;verticalAlign=middle;resizable=0;points=[];autosize=1;strokeColor=none;fillColor=none;" parent="1" vertex="1">
          <mxGeometry x="690" y="398" width="40" height="30" as="geometry" />
        </mxCell>
        <mxCell id="jl3M8Nz27-tc7JQozG0L-82" value="" style="endArrow=none;html=1;rounded=0;exitX=1;exitY=1;exitDx=0;exitDy=0;entryX=0.5;entryY=0;entryDx=0;entryDy=0;" parent="1" source="jl3M8Nz27-tc7JQozG0L-10" target="jl3M8Nz27-tc7JQozG0L-15" edge="1">
          <mxGeometry width="50" height="50" relative="1" as="geometry">
            <mxPoint x="460" y="420" as="sourcePoint" />
            <mxPoint x="510" y="370" as="targetPoint" />
          </mxGeometry>
        </mxCell>
        <mxCell id="jl3M8Nz27-tc7JQozG0L-83" value="120" style="text;html=1;align=center;verticalAlign=middle;resizable=0;points=[];autosize=1;strokeColor=none;fillColor=none;" parent="1" vertex="1">
          <mxGeometry x="650" y="478" width="40" height="30" as="geometry" />
        </mxCell>
        <mxCell id="jl3M8Nz27-tc7JQozG0L-84" value="" style="endArrow=none;html=1;rounded=0;exitX=0.5;exitY=0;exitDx=0;exitDy=0;entryX=0.5;entryY=1;entryDx=0;entryDy=0;" parent="1" source="jl3M8Nz27-tc7JQozG0L-16" target="jl3M8Nz27-tc7JQozG0L-10" edge="1">
          <mxGeometry width="50" height="50" relative="1" as="geometry">
            <mxPoint x="460" y="420" as="sourcePoint" />
            <mxPoint x="510" y="370" as="targetPoint" />
          </mxGeometry>
        </mxCell>
        <mxCell id="jl3M8Nz27-tc7JQozG0L-85" value="183" style="text;html=1;align=center;verticalAlign=middle;resizable=0;points=[];autosize=1;strokeColor=none;fillColor=none;" parent="1" vertex="1">
          <mxGeometry x="520" y="520" width="40" height="30" as="geometry" />
        </mxCell>
        <mxCell id="jl3M8Nz27-tc7JQozG0L-86" value="" style="endArrow=none;html=1;rounded=0;entryX=0;entryY=1;entryDx=0;entryDy=0;exitX=1;exitY=0.5;exitDx=0;exitDy=0;" parent="1" source="jl3M8Nz27-tc7JQozG0L-13" target="jl3M8Nz27-tc7JQozG0L-14" edge="1">
          <mxGeometry width="50" height="50" relative="1" as="geometry">
            <mxPoint x="460" y="340" as="sourcePoint" />
            <mxPoint x="510" y="290" as="targetPoint" />
          </mxGeometry>
        </mxCell>
        <mxCell id="jl3M8Nz27-tc7JQozG0L-87" value="257" style="text;html=1;align=center;verticalAlign=middle;resizable=0;points=[];autosize=1;strokeColor=none;fillColor=none;" parent="1" vertex="1">
          <mxGeometry x="660" y="228" width="40" height="30" as="geometry" />
        </mxCell>
        <mxCell id="jl3M8Nz27-tc7JQozG0L-88" value="" style="endArrow=none;html=1;rounded=0;entryX=1;entryY=1;entryDx=0;entryDy=0;" parent="1" source="jl3M8Nz27-tc7JQozG0L-12" target="jl3M8Nz27-tc7JQozG0L-13" edge="1">
          <mxGeometry width="50" height="50" relative="1" as="geometry">
            <mxPoint x="460" y="340" as="sourcePoint" />
            <mxPoint x="510" y="290" as="targetPoint" />
          </mxGeometry>
        </mxCell>
        <mxCell id="jl3M8Nz27-tc7JQozG0L-89" value="131" style="text;html=1;align=center;verticalAlign=middle;resizable=0;points=[];autosize=1;strokeColor=none;fillColor=none;" parent="1" vertex="1">
          <mxGeometry x="640" y="268" width="40" height="30" as="geometry" />
        </mxCell>
        <mxCell id="jl3M8Nz27-tc7JQozG0L-90" value="" style="endArrow=none;html=1;rounded=0;exitX=1;exitY=1;exitDx=0;exitDy=0;entryX=0;entryY=0;entryDx=0;entryDy=0;" parent="1" source="jl3M8Nz27-tc7JQozG0L-20" target="jl3M8Nz27-tc7JQozG0L-19" edge="1">
          <mxGeometry width="50" height="50" relative="1" as="geometry">
            <mxPoint x="750" y="300" as="sourcePoint" />
            <mxPoint x="800" y="250" as="targetPoint" />
          </mxGeometry>
        </mxCell>
        <mxCell id="jl3M8Nz27-tc7JQozG0L-91" value="186" style="text;html=1;align=center;verticalAlign=middle;resizable=0;points=[];autosize=1;strokeColor=none;fillColor=none;" parent="1" vertex="1">
          <mxGeometry x="860" y="108" width="40" height="30" as="geometry" />
        </mxCell>
        <mxCell id="jl3M8Nz27-tc7JQozG0L-92" value="" style="endArrow=none;html=1;rounded=0;entryX=0;entryY=1;entryDx=0;entryDy=0;exitX=1;exitY=0;exitDx=0;exitDy=0;" parent="1" source="jl3M8Nz27-tc7JQozG0L-14" target="jl3M8Nz27-tc7JQozG0L-19" edge="1">
          <mxGeometry width="50" height="50" relative="1" as="geometry">
            <mxPoint x="690" y="360" as="sourcePoint" />
            <mxPoint x="740" y="310" as="targetPoint" />
          </mxGeometry>
        </mxCell>
        <mxCell id="jl3M8Nz27-tc7JQozG0L-93" value="143" style="text;html=1;align=center;verticalAlign=middle;resizable=0;points=[];autosize=1;strokeColor=none;fillColor=none;" parent="1" vertex="1">
          <mxGeometry x="900" y="178" width="40" height="30" as="geometry" />
        </mxCell>
        <mxCell id="jl3M8Nz27-tc7JQozG0L-94" value="" style="endArrow=none;html=1;rounded=0;exitX=0.5;exitY=1;exitDx=0;exitDy=0;entryX=1;entryY=0;entryDx=0;entryDy=0;" parent="1" source="jl3M8Nz27-tc7JQozG0L-14" target="jl3M8Nz27-tc7JQozG0L-12" edge="1">
          <mxGeometry width="50" height="50" relative="1" as="geometry">
            <mxPoint x="760" y="400" as="sourcePoint" />
            <mxPoint x="810" y="350" as="targetPoint" />
          </mxGeometry>
        </mxCell>
        <mxCell id="jl3M8Nz27-tc7JQozG0L-95" value="113" style="text;html=1;align=center;verticalAlign=middle;resizable=0;points=[];autosize=1;strokeColor=none;fillColor=none;" parent="1" vertex="1">
          <mxGeometry x="760" y="268" width="40" height="30" as="geometry" />
        </mxCell>
        <mxCell id="jl3M8Nz27-tc7JQozG0L-96" value="" style="endArrow=none;html=1;rounded=0;entryX=1;entryY=1;entryDx=0;entryDy=0;exitX=0.5;exitY=0;exitDx=0;exitDy=0;" parent="1" source="jl3M8Nz27-tc7JQozG0L-11" target="jl3M8Nz27-tc7JQozG0L-14" edge="1">
          <mxGeometry width="50" height="50" relative="1" as="geometry">
            <mxPoint x="710" y="400" as="sourcePoint" />
            <mxPoint x="760" y="350" as="targetPoint" />
          </mxGeometry>
        </mxCell>
        <mxCell id="jl3M8Nz27-tc7JQozG0L-97" value="201" style="text;html=1;align=center;verticalAlign=middle;resizable=0;points=[];autosize=1;strokeColor=none;fillColor=none;" parent="1" vertex="1">
          <mxGeometry x="840" y="318" width="40" height="30" as="geometry" />
        </mxCell>
        <mxCell id="jl3M8Nz27-tc7JQozG0L-98" value="" style="endArrow=none;html=1;rounded=0;exitX=0;exitY=0;exitDx=0;exitDy=0;entryX=1;entryY=1;entryDx=0;entryDy=0;" parent="1" source="jl3M8Nz27-tc7JQozG0L-11" target="jl3M8Nz27-tc7JQozG0L-12" edge="1">
          <mxGeometry width="50" height="50" relative="1" as="geometry">
            <mxPoint x="670" y="410" as="sourcePoint" />
            <mxPoint x="720" y="360" as="targetPoint" />
          </mxGeometry>
        </mxCell>
        <mxCell id="jl3M8Nz27-tc7JQozG0L-99" value="162" style="text;html=1;align=center;verticalAlign=middle;resizable=0;points=[];autosize=1;strokeColor=none;fillColor=none;" parent="1" vertex="1">
          <mxGeometry x="760" y="358" width="40" height="30" as="geometry" />
        </mxCell>
        <mxCell id="jl3M8Nz27-tc7JQozG0L-100" value="" style="endArrow=none;html=1;rounded=0;exitX=1;exitY=0;exitDx=0;exitDy=0;entryX=0.5;entryY=1;entryDx=0;entryDy=0;" parent="1" source="jl3M8Nz27-tc7JQozG0L-11" target="jl3M8Nz27-tc7JQozG0L-19" edge="1">
          <mxGeometry width="50" height="50" relative="1" as="geometry">
            <mxPoint x="670" y="410" as="sourcePoint" />
            <mxPoint x="720" y="360" as="targetPoint" />
          </mxGeometry>
        </mxCell>
        <mxCell id="jl3M8Nz27-tc7JQozG0L-101" value="218" style="text;html=1;align=center;verticalAlign=middle;resizable=0;points=[];autosize=1;strokeColor=none;fillColor=none;" parent="1" vertex="1">
          <mxGeometry x="915" y="268" width="40" height="30" as="geometry" />
        </mxCell>
        <mxCell id="jl3M8Nz27-tc7JQozG0L-102" value="" style="endArrow=none;html=1;rounded=0;exitX=0.5;exitY=0;exitDx=0;exitDy=0;entryX=0.5;entryY=1;entryDx=0;entryDy=0;" parent="1" source="jl3M8Nz27-tc7JQozG0L-22" target="jl3M8Nz27-tc7JQozG0L-11" edge="1">
          <mxGeometry width="50" height="50" relative="1" as="geometry">
            <mxPoint x="670" y="410" as="sourcePoint" />
            <mxPoint x="720" y="360" as="targetPoint" />
          </mxGeometry>
        </mxCell>
        <mxCell id="jl3M8Nz27-tc7JQozG0L-103" value="86" style="text;html=1;align=center;verticalAlign=middle;resizable=0;points=[];autosize=1;strokeColor=none;fillColor=none;" parent="1" vertex="1">
          <mxGeometry x="870" y="460" width="40" height="30" as="geometry" />
        </mxCell>
        <mxCell id="jl3M8Nz27-tc7JQozG0L-104" value="" style="endArrow=none;html=1;rounded=0;exitX=0;exitY=1;exitDx=0;exitDy=0;entryX=1;entryY=0;entryDx=0;entryDy=0;" parent="1" source="jl3M8Nz27-tc7JQozG0L-11" target="jl3M8Nz27-tc7JQozG0L-15" edge="1">
          <mxGeometry width="50" height="50" relative="1" as="geometry">
            <mxPoint x="630" y="430" as="sourcePoint" />
            <mxPoint x="680" y="380" as="targetPoint" />
          </mxGeometry>
        </mxCell>
        <mxCell id="jl3M8Nz27-tc7JQozG0L-105" value="146" style="text;html=1;align=center;verticalAlign=middle;resizable=0;points=[];autosize=1;strokeColor=none;fillColor=none;" parent="1" vertex="1">
          <mxGeometry x="730" y="468" width="40" height="30" as="geometry" />
        </mxCell>
        <mxCell id="jl3M8Nz27-tc7JQozG0L-106" value="" style="endArrow=none;html=1;rounded=0;exitX=0;exitY=1;exitDx=0;exitDy=0;entryX=1;entryY=0;entryDx=0;entryDy=0;" parent="1" source="jl3M8Nz27-tc7JQozG0L-22" target="jl3M8Nz27-tc7JQozG0L-23" edge="1">
          <mxGeometry width="50" height="50" relative="1" as="geometry">
            <mxPoint x="680" y="540" as="sourcePoint" />
            <mxPoint x="730" y="490" as="targetPoint" />
          </mxGeometry>
        </mxCell>
        <mxCell id="jl3M8Nz27-tc7JQozG0L-107" value="" style="endArrow=none;html=1;rounded=0;exitX=0;exitY=1;exitDx=0;exitDy=0;entryX=1;entryY=0;entryDx=0;entryDy=0;" parent="1" source="jl3M8Nz27-tc7JQozG0L-15" target="jl3M8Nz27-tc7JQozG0L-16" edge="1">
          <mxGeometry width="50" height="50" relative="1" as="geometry">
            <mxPoint x="680" y="540" as="sourcePoint" />
            <mxPoint x="730" y="490" as="targetPoint" />
          </mxGeometry>
        </mxCell>
        <mxCell id="jl3M8Nz27-tc7JQozG0L-108" value="182" style="text;html=1;align=center;verticalAlign=middle;resizable=0;points=[];autosize=1;strokeColor=none;fillColor=none;" parent="1" vertex="1">
          <mxGeometry x="580" y="568" width="40" height="30" as="geometry" />
        </mxCell>
        <mxCell id="jl3M8Nz27-tc7JQozG0L-109" value="" style="endArrow=none;html=1;rounded=0;exitX=1;exitY=0;exitDx=0;exitDy=0;entryX=0;entryY=1;entryDx=0;entryDy=0;" parent="1" source="jl3M8Nz27-tc7JQozG0L-17" target="jl3M8Nz27-tc7JQozG0L-16" edge="1">
          <mxGeometry width="50" height="50" relative="1" as="geometry">
            <mxPoint x="680" y="540" as="sourcePoint" />
            <mxPoint x="730" y="490" as="targetPoint" />
          </mxGeometry>
        </mxCell>
        <mxCell id="jl3M8Nz27-tc7JQozG0L-110" value="153" style="text;html=1;align=center;verticalAlign=middle;resizable=0;points=[];autosize=1;strokeColor=none;fillColor=none;" parent="1" vertex="1">
          <mxGeometry x="400" y="650" width="40" height="30" as="geometry" />
        </mxCell>
        <mxCell id="jl3M8Nz27-tc7JQozG0L-111" value="" style="endArrow=none;html=1;rounded=0;exitX=1;exitY=1;exitDx=0;exitDy=0;entryX=0;entryY=0;entryDx=0;entryDy=0;" parent="1" source="jl3M8Nz27-tc7JQozG0L-16" target="jl3M8Nz27-tc7JQozG0L-23" edge="1">
          <mxGeometry width="50" height="50" relative="1" as="geometry">
            <mxPoint x="680" y="540" as="sourcePoint" />
            <mxPoint x="730" y="490" as="targetPoint" />
          </mxGeometry>
        </mxCell>
        <mxCell id="jl3M8Nz27-tc7JQozG0L-112" value="68" style="text;html=1;align=center;verticalAlign=middle;resizable=0;points=[];autosize=1;strokeColor=none;fillColor=none;" parent="1" vertex="1">
          <mxGeometry x="580" y="658" width="40" height="30" as="geometry" />
        </mxCell>
        <mxCell id="jl3M8Nz27-tc7JQozG0L-113" value="349" style="text;html=1;align=center;verticalAlign=middle;resizable=0;points=[];autosize=1;strokeColor=none;fillColor=none;" parent="1" vertex="1">
          <mxGeometry x="740" y="610" width="40" height="30" as="geometry" />
        </mxCell>
      </root>
    </mxGraphModel>
  </diagram>
</mxfile>
